<svg width="52" height="40" viewBox="0 0 52 40" fill="none" xmlns="http://www.w3.org/2000/svg">
<path fill-rule="evenodd" clip-rule="evenodd" d="M19.1667 10.8966C19.1667 8.73803 20.9267 7 23.0833 7C24.2396 7 25.2819 7.49961 26 8.29577C26.7181 7.49961 27.7604 7 28.9167 7C31.0732 7 32.8333 8.73803 32.8333 10.8966C32.8333 11.593 32.6501 12.2456 32.3295 12.8102C32.8408 12.833 33.2705 12.8855 33.6613 13.0064C35.1496 13.467 36.3186 14.6257 36.7843 16.1099C37.0009 16.8002 37.0006 17.6119 37 18.7755C37 18.8327 37 18.8907 37 18.9496C37 18.9881 37.0001 19.0264 37.0001 19.0646C37.0009 19.539 37.0017 19.986 36.8787 20.378C36.6389 21.1422 36.0682 21.7517 35.3333 22.0476V25.4225C35.3333 26.5446 35.3333 27.4479 35.2732 28.1791C35.2113 28.9315 35.0807 29.5895 34.7689 30.1971C34.2726 31.1645 33.4814 31.9496 32.5098 32.4413C31.9003 32.7497 31.2403 32.879 30.4842 32.9403C29.7488 33 28.8399 33 27.7094 33H24.2906C23.1601 33 22.2512 33 21.5158 32.9403C20.7597 32.879 20.0997 32.7497 19.4902 32.4413C18.5186 31.9496 17.7274 31.1645 17.2311 30.1971C16.9193 29.5895 16.7887 28.9315 16.7268 28.1791C16.6666 27.4479 16.6667 26.5446 16.6667 25.4225L16.6667 22.0476C15.9318 21.7517 15.3611 21.1422 15.1213 20.378C14.9983 19.986 14.9991 19.539 14.9999 19.0646C14.9999 19.0264 15 18.9881 15 18.9496C15 18.8907 15 18.8326 14.9999 18.7755C14.9994 17.6119 14.9991 16.8001 15.2157 16.1099C15.6814 14.6257 16.8503 13.467 18.3387 13.0064C18.7295 12.8855 19.1592 12.833 19.6705 12.8102C19.3499 12.2456 19.1667 11.593 19.1667 10.8966ZM23.0833 12.7931H25V10.8966C25 9.85563 24.1484 9 23.0833 9C22.0182 9 21.1667 9.85563 21.1667 10.8966C21.1667 11.9375 22.0182 12.7931 23.0833 12.7931ZM27 10.8966V12.7931H28.9167C29.9817 12.7931 30.8333 11.9375 30.8333 10.8966C30.8333 9.85563 29.9817 9 28.9167 9C27.8516 9 27 9.85563 27 10.8966ZM25 14.7931H21.1923C19.776 14.7931 19.294 14.8044 18.93 14.917C18.0652 15.1847 17.3915 15.8559 17.1239 16.7087C17.0116 17.0668 17 17.5417 17 18.9496C17 19.6171 17.0116 19.7218 17.0296 19.7792C17.0935 19.9829 17.2553 20.1458 17.4665 20.2111C17.5278 20.2301 17.637 20.2414 18.3077 20.2414H25V14.7931ZM25 22.2414H18.6667V25.3793C18.6667 26.5547 18.6674 27.3756 18.7201 28.0151C18.7717 28.6427 18.8682 29.0067 19.0105 29.2842C19.3132 29.8741 19.7968 30.3549 20.3932 30.6567C20.675 30.7993 21.044 30.8955 21.6775 30.9469C22.3225 30.9992 23.1502 31 24.3333 31H25V22.2414ZM27 31V22.2414H33.3333V25.3793C33.3333 26.5547 33.3325 27.3756 33.2799 28.0151C33.2283 28.6427 33.1318 29.0067 32.9895 29.2842C32.6868 29.8741 32.2032 30.3549 31.6068 30.6567C31.325 30.7993 30.9559 30.8955 30.3224 30.9469C29.6775 30.9992 28.8498 31 27.6667 31H27ZM27 20.2414V14.7931H30.8077C32.224 14.7931 32.706 14.8044 33.07 14.917C33.9348 15.1847 34.6085 15.8559 34.8761 16.7087C34.9884 17.0668 35 17.5417 35 18.9496C35 19.6171 34.9884 19.7218 34.9704 19.7792C34.9065 19.9829 34.7447 20.1458 34.5335 20.2111C34.4722 20.2301 34.363 20.2414 33.6923 20.2414H27Z" fill="#757575"/>
</svg>
