<svg width="52" height="40" viewBox="0 0 52 40" fill="none" xmlns="http://www.w3.org/2000/svg">
<path fill-rule="evenodd" clip-rule="evenodd" d="M25.6918 7.01301C25.8969 6.99575 26.1031 6.99575 26.3082 7.01301C27.3255 7.09861 28.0936 7.69128 28.7769 8.45804C29.4401 9.20216 30.1582 10.2682 31.0381 11.5744L31.0804 11.6372C31.6095 12.4226 31.7595 12.6244 31.9439 12.7671C31.9704 12.7876 31.9975 12.8073 32.0252 12.8262C32.2177 12.9576 32.4555 13.038 33.3652 13.299L33.4381 13.3199C34.951 13.7539 36.1859 14.1081 37.0979 14.5095C38.0379 14.9233 38.838 15.4713 39.2334 16.4126C39.3132 16.6024 39.3768 16.7986 39.4238 16.9991C39.6566 17.9929 39.3312 18.9066 38.8138 19.7942C38.3117 20.6555 37.5208 21.6686 36.5516 22.9099L36.505 22.9696C35.9223 23.7159 35.777 23.9211 35.6983 24.1409C35.6869 24.1725 35.6766 24.2045 35.6672 24.2367C35.6017 24.4609 35.5989 24.7126 35.632 25.6592L35.6347 25.7349C35.6898 27.3094 35.7348 28.5943 35.6353 29.5864C35.5327 30.6086 35.2594 31.5395 34.4871 32.2069C34.3314 32.3415 34.1646 32.4628 33.9885 32.5695C33.1154 33.0987 32.1458 33.0712 31.1424 32.8529C30.1689 32.641 28.9618 32.201 27.483 31.662L27.4118 31.6361C26.5225 31.3119 26.283 31.2371 26.0503 31.2301C26.0168 31.2291 25.9832 31.2291 25.9498 31.2301C25.7171 31.2371 25.4775 31.3119 24.5882 31.6361L24.517 31.662C23.0382 32.201 21.8311 32.641 20.8576 32.8529C19.8542 33.0712 18.8846 33.0987 18.0115 32.5695C17.8354 32.4628 17.6686 32.3415 17.5129 32.2069C16.7406 31.5395 16.4673 30.6086 16.3647 29.5864C16.2652 28.5943 16.3102 27.3094 16.3654 25.7349L16.368 25.6592C16.4011 24.7126 16.3983 24.4609 16.3329 24.2367C16.3234 24.2045 16.3131 24.1725 16.3017 24.1409C16.223 23.9211 16.0777 23.7159 15.495 22.9696L15.4484 22.9099C14.4792 21.6685 13.6883 20.6555 13.1862 19.7942C12.6688 18.9066 12.3434 17.9929 12.5762 16.9991C12.6232 16.7986 12.6869 16.6024 12.7666 16.4126C13.162 15.4713 13.9621 14.9233 14.9021 14.5095C15.8141 14.1081 17.049 13.7539 18.5619 13.3199L18.6348 13.299C19.5445 13.038 19.7823 12.9576 19.9748 12.8262C20.0025 12.8073 20.0296 12.7876 20.0561 12.7671C20.2405 12.6244 20.3905 12.4226 20.9196 11.6372L20.9619 11.5744C21.8418 10.2682 22.5599 9.20216 23.2231 8.45804C23.9064 7.69128 24.6745 7.09861 25.6918 7.01301ZM26.1405 9.00596C26.047 8.99809 25.953 8.99809 25.8595 9.00596C25.5979 9.02798 25.2685 9.16892 24.7162 9.78869C24.1543 10.4192 23.5109 11.3703 22.5783 12.7547C22.5538 12.791 22.5297 12.8269 22.5058 12.8623C22.0841 13.4894 21.7516 13.9838 21.2804 14.3486C21.2223 14.3936 21.1628 14.4368 21.1021 14.4783C20.6098 14.8142 20.0371 14.978 19.311 15.1857C19.2699 15.1975 19.2284 15.2094 19.1863 15.2214C17.5827 15.6815 16.4804 16 15.7078 16.3401C14.9486 16.6742 14.7126 16.9442 14.6105 17.1872C14.5741 17.2739 14.545 17.3635 14.5235 17.4552C14.4634 17.7121 14.4959 18.0697 14.914 18.787C15.3395 19.5168 16.0443 20.4232 17.0715 21.7388C17.0984 21.7733 17.125 21.8073 17.1513 21.8409C17.6168 22.4363 17.9838 22.9056 18.1847 23.4667C18.2095 23.5359 18.2322 23.6059 18.2528 23.6764C18.4197 24.2485 18.3984 24.844 18.3714 25.5996C18.3699 25.6423 18.3683 25.6854 18.3668 25.7292C18.3084 27.3978 18.2704 28.5459 18.3547 29.3867C18.4377 30.2132 18.6214 30.5215 18.8206 30.6936C18.8917 30.7551 18.9678 30.8104 19.0481 30.8591C19.2728 30.9953 19.6218 31.075 20.4323 30.8986C21.257 30.7191 22.3359 30.3283 23.9033 29.757C23.9445 29.742 23.9851 29.7272 24.0252 29.7125C24.7345 29.4534 25.2942 29.2489 25.8898 29.231C25.9632 29.2288 26.0368 29.2288 26.1102 29.231C26.7058 29.2489 27.2655 29.4534 27.9748 29.7125C28.0149 29.7272 28.0555 29.742 28.0967 29.757C29.6641 30.3283 30.743 30.7191 31.5677 30.8986C32.3782 31.075 32.7272 30.9953 32.9519 30.8591C33.0322 30.8104 33.1083 30.7551 33.1794 30.6936C33.3786 30.5215 33.5623 30.2132 33.6453 29.3867C33.7296 28.5459 33.6916 27.3978 33.6332 25.7292C33.6317 25.6854 33.6301 25.6422 33.6286 25.5996C33.6016 24.844 33.5803 24.2485 33.7472 23.6764C33.7678 23.6059 33.7905 23.5359 33.8153 23.4667C34.0162 22.9056 34.3832 22.4363 34.8487 21.8409C34.875 21.8073 34.9016 21.7733 34.9286 21.7388C35.9557 20.4232 36.6605 19.5168 37.086 18.787C37.5041 18.0697 37.5367 17.7121 37.4765 17.4552C37.455 17.3635 37.4259 17.2739 37.3895 17.1872C37.2874 16.9442 37.0514 16.6742 36.2922 16.3401C35.5196 16 34.4173 15.6815 32.8137 15.2214C32.7716 15.2094 32.7301 15.1975 32.689 15.1857C31.9629 14.978 31.3902 14.8142 30.8979 14.4783C30.8372 14.4368 30.7777 14.3936 30.7196 14.3486C30.2484 13.9838 29.9159 13.4894 29.4942 12.8623C29.4703 12.8269 29.4462 12.791 29.4217 12.7547C28.4891 11.3703 27.8457 10.4192 27.2838 9.78869C26.7315 9.16892 26.4022 9.02798 26.1405 9.00596Z" fill="#757575"/>
</svg>
