<svg width="52" height="40" viewBox="0 0 52 40" fill="none" xmlns="http://www.w3.org/2000/svg">
<path d="M26.0242 14.167C26.6554 14.167 27.167 14.6787 27.167 15.3099V18.834H30.6908C31.322 18.834 31.8337 19.3457 31.8337 19.9769V20.0245C31.8337 20.6556 31.322 21.1673 30.6908 21.1673H27.167V24.6908C27.167 25.322 26.6554 25.8337 26.0242 25.8337H25.9766C25.3454 25.8337 24.8337 25.322 24.8337 24.6908V21.1673H21.3099C20.6787 21.1673 20.167 20.6556 20.167 20.0245V19.9769C20.167 19.3457 20.6787 18.834 21.3099 18.834H24.8337V15.3099C24.8337 14.6787 25.3454 14.167 25.9766 14.167H26.0242Z" fill="#757575"/>
<path fill-rule="evenodd" clip-rule="evenodd" d="M26 7C18.8203 7 13 12.8203 13 20C13 27.1797 18.8203 33 26 33C33.1797 33 39 27.1797 39 20C39 12.8203 33.1797 7 26 7ZM15 20C15 13.9249 19.9249 9 26 9C32.0751 9 37 13.9249 37 20C37 26.0751 32.0751 31 26 31C19.9249 31 15 26.0751 15 20Z" fill="#757575"/>
</svg>
