<svg width="52" height="40" viewBox="0 0 52 40" fill="none" xmlns="http://www.w3.org/2000/svg">
<path d="M9.61239 32.1322C8.06036 32.8139 6.80853 33.3504 5.81744 33.4944L7.87019 28.5992C7.88306 28.5685 7.89715 28.5387 7.91238 28.5097C8.1551 28.0475 8.689 27.8018 9.21001 27.9255L12.5929 28.7286C13.0846 28.8453 13.5962 28.6333 13.8561 28.205L15.722 25.131C16.0209 24.6386 16.6434 24.4416 17.1766 24.6707L20.6553 26.1657C21.0835 26.3497 21.5818 26.2616 21.9187 25.9423L24.9316 23.0863C25.3795 22.6618 26.0868 22.6618 26.5347 23.0863L29.5476 25.9423C29.8845 26.2616 30.3828 26.3497 30.811 26.1657L34.2897 24.6707C34.8229 24.4416 35.4454 24.6386 35.7443 25.131L37.6102 28.205C37.8702 28.6333 38.3817 28.8453 38.8734 28.7286L42.2563 27.9255C42.4109 27.8888 42.5666 27.8846 42.7154 27.9089C42.9088 27.9405 43.0907 28.0202 43.2438 28.1393C43.395 28.257 43.5181 28.4131 43.5961 28.5992L45.5983 33.3739C44.6688 33.1333 43.5443 32.6408 42.2004 32.0499L42.1531 32.0291L42.1521 32.0287C41.597 31.7846 41.0048 31.5242 40.3737 31.2582C40.0515 31.1224 39.7192 30.9851 39.3766 30.8478C38.2045 30.378 36.9112 29.9076 35.4876 29.4934C35.0318 29.3608 34.5626 29.2339 34.0798 29.1147C33.8507 29.0581 33.6186 29.0033 33.3834 28.9504C32.8949 28.8405 32.393 28.7388 31.8774 28.6472C30.499 28.4023 29.0228 28.2292 27.4435 28.1621C26.9852 28.1426 26.5182 28.132 26.0425 28.1312L26 28.1312C25.8046 28.1313 25.6108 28.133 25.4184 28.1363C24.9527 28.1444 24.4956 28.1617 24.047 28.1876C22.4379 28.2803 20.9383 28.4821 19.5423 28.7556C19.0114 28.8596 18.4955 28.9739 17.9942 29.0965C17.8563 29.1302 17.7195 29.1646 17.5839 29.1995C17.0929 29.326 16.6163 29.46 16.1538 29.5997C14.6311 30.0596 13.2612 30.5801 12.0326 31.0884C11.6682 31.2392 11.3162 31.3889 10.9763 31.5357C10.5838 31.7051 10.2075 31.8705 9.84688 32.0291L9.61239 32.1322Z" fill="#757575"/>
<path d="M29.3115 6.76434C30.3866 7.0414 31.4375 7.44444 32.4584 7.95157C32.6517 8.04756 32.8439 8.14729 33.035 8.25059C34.8067 9.20848 36.4828 10.4742 38.0321 11.9295C38.4278 12.3012 38.8152 12.6852 39.1938 13.0797C39.5258 13.4255 39.8511 13.7794 40.1692 14.1399C40.5099 14.5261 40.8425 14.9199 41.1665 15.3198C41.9302 16.2621 42.646 17.2378 43.3085 18.2255C43.3872 18.3429 43.4652 18.4605 43.5424 18.5782L43.5453 18.5826C44.1165 19.4535 44.6459 20.3316 45.1296 21.2024C45.4047 21.6978 45.6651 22.1909 45.91 22.6789L43.2253 22.5685C42.6573 22.5451 42.1906 22.1179 42.1242 21.5606L41.7489 18.4114C41.6892 17.9105 41.3038 17.5075 40.8007 17.4199L37.3937 16.8263C37.3048 16.8108 37.2195 16.7855 37.1389 16.7514C36.8301 16.6207 36.5909 16.362 36.4897 16.0406C36.4791 16.0066 36.4699 15.9719 36.4624 15.9367L35.7133 12.424C35.5692 11.7483 34.8554 11.3523 34.1957 11.5821L31.0423 12.6808C30.6546 12.8159 30.2235 12.7378 29.9097 12.4757L26.6532 9.75575C26.4681 9.60111 26.246 9.51282 26.0187 9.4909L26.0083 9.48994L26.0062 9.48976L26.002 9.48941L25.9916 9.4886L25.9895 9.48845C25.6963 9.46753 25.3967 9.55663 25.1583 9.75575L21.9016 12.4759C21.5878 12.738 21.1567 12.8161 20.769 12.681L17.6156 11.5823C16.9559 11.3525 16.2421 11.7485 16.098 12.4242L15.3489 15.9369C15.2516 16.3933 14.8829 16.7455 14.4176 16.8265L11.0106 17.4201C10.5075 17.5077 10.1221 17.9107 10.0624 18.4116L9.68711 21.5608C9.62069 22.1181 9.15399 22.5453 8.58599 22.5687L6.09376 22.6712C6.33401 22.1927 6.58916 21.7093 6.85853 21.2237C7.33675 20.3615 7.8598 19.492 8.42395 18.6294C8.50752 18.5016 8.59198 18.374 8.67734 18.2465C9.29873 17.3189 9.96728 16.4016 10.6783 15.5125C10.9721 15.145 11.2732 14.7824 11.5812 14.4258C11.6695 14.3235 11.7584 14.2218 11.8478 14.1206C12.0381 13.9052 12.2309 13.6923 12.4262 13.482C12.5642 13.3335 12.7034 13.1863 12.8438 13.0405C13.1992 12.6714 13.5624 12.3115 13.9328 11.9625C15.4237 10.5575 17.0327 9.32764 18.7317 8.37879C18.9739 8.24352 19.218 8.11397 19.4638 7.99043C20.4212 7.50921 21.4051 7.11931 22.4108 6.83886C22.4953 6.81528 22.58 6.79248 22.6649 6.77046C23.7484 6.48927 24.8565 6.33597 25.9833 6.333L26 6.33297L26.0166 6.33296C27.0896 6.33579 28.1456 6.47493 29.1796 6.73101C29.2236 6.74191 29.2676 6.75302 29.3115 6.76434Z" fill="#757575"/>
<path fill-rule="evenodd" clip-rule="evenodd" d="M26.0236 3.50006C30.4452 3.51165 34.4836 5.37859 37.8993 7.99139C41.3193 10.6074 44.2523 14.0714 46.5266 17.5624C48.7988 21.0504 50.4861 24.6772 51.3474 27.6958C51.7744 29.1922 52.0322 30.6555 51.9967 31.9333C51.9645 33.0937 51.6651 34.7493 50.2503 35.7411C48.7901 36.7648 47.1388 36.5556 45.9652 36.2461C44.8095 35.9414 43.4887 35.364 42.1834 34.7933L42.0477 34.734C38.2682 33.082 33.1536 30.8587 26 30.8551C18.8464 30.8587 13.7318 33.0819 9.95234 34.734L9.81665 34.7933C8.51133 35.364 7.19049 35.9414 6.0348 36.2461C4.86117 36.5556 3.20993 36.7648 1.74969 35.7411C0.334877 34.7493 0.0354915 33.0937 0.00325024 31.9333C-0.0322517 30.6555 0.225616 29.1922 0.652597 27.6958C1.51387 24.6772 3.20118 21.0504 5.4734 17.5625C7.74765 14.0714 10.6807 10.6075 14.1007 7.99143C17.5164 5.37863 21.5548 3.5117 25.9763 3.50011L25.9977 3.50007L26.0236 3.50006ZM26 29.8551C33.3747 29.8587 38.6517 32.1582 42.4482 33.8177L42.5304 33.8536C43.877 34.4423 45.1397 34.9943 46.2201 35.2792C47.3127 35.5672 48.5881 35.6852 49.6763 34.9223C50.6905 34.2113 50.9674 32.9759 50.9971 31.9055C51.0287 30.7693 50.7982 29.4154 50.3858 27.9701C49.5569 25.0652 47.9172 21.5291 45.6887 18.1083C43.4592 14.6859 40.5992 11.3156 37.2918 8.78566C33.9869 6.25765 30.1561 4.5109 26.021 4.50006L25.9982 4.50007L25.979 4.50011C21.8439 4.51094 18.0131 6.2577 14.7082 8.7857C11.4008 11.3157 8.54081 14.6859 6.31128 18.1083C4.08278 21.5291 2.44307 25.0652 1.61422 27.9702C1.20184 29.4155 0.971295 30.7693 1.00286 31.9055C1.03261 32.9759 1.30947 34.2113 2.32374 34.9223C3.41189 35.6852 4.68732 35.5672 5.77986 35.2792C6.86033 34.9943 8.12295 34.4423 9.46952 33.8537L9.55179 33.8177C13.3483 32.1582 18.6252 29.8588 26 29.8551Z" fill="#757575"/>
</svg>
