<svg width="52" height="40" viewBox="0 0 52 40" fill="none" xmlns="http://www.w3.org/2000/svg">
<path fill-rule="evenodd" clip-rule="evenodd" d="M32.0946 9.77776C28.0929 8.74075 23.9071 8.74075 19.9054 9.77776C19.5911 9.8592 19.3333 10.1676 19.3333 10.5638V19.086C19.3333 19.2297 19.3375 19.3723 19.3457 19.5137C19.5592 23.1822 22.4868 26.0331 26 26.0331C29.5132 26.0331 32.4408 23.1822 32.6543 19.5137C32.6625 19.3723 32.6667 19.2297 32.6667 19.086V10.5638C32.6667 10.1676 32.4089 9.8592 32.0946 9.77776ZM19.4037 7.84171C23.7344 6.71943 28.2656 6.71943 32.5963 7.84171C33.835 8.16271 34.6667 9.30065 34.6667 10.5638V11.161C34.8099 11.1421 34.9559 11.1323 35.1042 11.1323C37.0132 11.1323 38.5 12.726 38.5 14.6157V17.5959C38.5 19.4856 37.0132 21.0794 35.1042 21.0794C34.8852 21.0794 34.6711 21.058 34.4638 21.0174C33.6805 24.6851 30.711 27.5357 27 27.9744V31H28.875V33H23.125V31H25V27.9744C21.289 27.5357 18.3195 24.6851 17.5362 21.0174C17.3289 21.058 17.1148 21.0794 16.8958 21.0794C14.9868 21.0794 13.5 19.4856 13.5 17.5959V14.6157C13.5 12.726 14.9868 11.1323 16.8958 11.1323C17.0441 11.1323 17.1901 11.1421 17.3333 11.161V10.5638C17.3333 9.30065 18.165 8.16271 19.4037 7.84171ZM17.3333 13.2064C17.1954 13.1581 17.0484 13.1323 16.8958 13.1323C16.1585 13.1323 15.5 13.7623 15.5 14.6157V17.5959C15.5 18.4494 16.1585 19.0794 16.8958 19.0794C17.0484 19.0794 17.1953 19.0536 17.3333 19.0052V13.2064ZM34.6667 19.0052C34.8047 19.0536 34.9516 19.0794 35.1042 19.0794C35.8415 19.0794 36.5 18.4494 36.5 17.5959V14.6157C36.5 13.7623 35.8415 13.1323 35.1042 13.1323C34.9516 13.1323 34.8046 13.1581 34.6667 13.2064V19.0052Z" fill="#757575"/>
</svg>
