<svg width="352" height="80" viewBox="0 0 352 80" fill="none" xmlns="http://www.w3.org/2000/svg">
<path d="M351.5 25.5738V55.715C351.5 59.9237 351.5 63.0501 351.297 65.5263C351.095 67.9967 350.695 69.7758 349.92 71.2979C348.529 74.0263 346.311 76.2445 343.583 77.6346C342.061 78.4102 340.282 78.8105 337.811 79.0123C335.335 79.2147 332.209 79.215 328 79.215L24 79.2151C19.7914 79.2151 16.6649 79.2147 14.1887 79.0124C11.7184 78.8105 9.93925 78.4102 8.41714 77.6347C5.68879 76.2445 3.47057 74.0263 2.08041 71.2979C1.30486 69.7758 0.904542 67.9967 0.702706 65.5263C0.500392 63.0501 0.500003 59.9237 0.500003 55.7151L0.5 25.5739C0.5 20.9969 0.500401 17.5948 0.722105 14.92C0.943419 12.2498 1.38243 10.3541 2.23083 8.77718C3.76855 5.91908 6.13524 3.72255 9.09992 2.40195C10.7348 1.67368 12.674 1.37801 15.3874 1.3586C18.1048 1.33917 21.5476 1.59588 26.1783 1.94171C71.4044 5.31918 122.251 7.21507 176 7.21506C229.749 7.21506 280.596 5.31916 325.822 1.94168C330.452 1.59586 333.895 1.33914 336.613 1.35858C339.326 1.37798 341.265 1.67365 342.9 2.40192C345.865 3.72252 348.231 5.91905 349.769 8.77715C350.618 10.354 351.057 12.2498 351.278 14.9199C351.5 17.5947 351.5 20.9968 351.5 25.5738Z" stroke="white"/>
</svg>
