<svg width="352" height="79" viewBox="0 0 352 79" fill="none" xmlns="http://www.w3.org/2000/svg">
<mask id="path-1-inside-1_339_2947" fill="white">
<path fill-rule="evenodd" clip-rule="evenodd" d="M-2.09815e-06 24C-1.36373e-06 15.5992 -9.96516e-07 11.3988 1.6349 8.19014C3.073 5.36771 5.36771 3.073 8.19014 1.6349C11.3988 7.41277e-07 15.5992 1.10849e-06 24 1.84291e-06L328 2.84194e-05C336.401 2.91539e-05 340.601 2.95211e-05 343.81 1.63493C346.632 3.07303 348.927 5.36774 350.365 8.19017C352 11.3988 352 15.5992 352 24L352 54.1412C352 63.2783 352 67.8469 350.209 71.1748C348.619 74.1304 346.169 76.4043 343.104 77.7699C339.651 79.3076 335.029 78.9624 325.784 78.272C280.572 74.8955 229.737 73 176 73C122.262 73 71.4282 74.8955 26.2156 78.272C16.9709 78.9624 12.3485 79.3076 8.89647 77.7699C5.83067 76.4042 3.38068 74.1304 1.79051 71.1748C-5.93136e-06 67.8468 -5.53196e-06 63.2783 -4.73317e-06 54.1412L-2.09815e-06 24Z"/>
</mask>
<path d="M8.89647 77.7699L9.30337 76.8564L8.89647 77.7699ZM1.79051 71.1748L2.67114 70.701L1.79051 71.1748ZM350.209 71.1748L349.329 70.701L350.209 71.1748ZM343.104 77.7699L342.697 76.8564L343.104 77.7699ZM8.19014 1.6349L8.64413 2.52591L8.19014 1.6349ZM-2.09815e-06 24L0.999998 24L-2.09815e-06 24ZM1.6349 8.19014L2.52591 8.64413L1.6349 8.19014ZM328 1.00003L24 1L24 -0.999998L328 -0.999972L328 1.00003ZM351 54.1412L351 24L353 24L353 54.1412L351 54.1412ZM325.71 79.2692C280.524 75.8948 229.715 74 176 74L176 72C229.76 72 280.619 73.8963 325.859 77.2748L325.71 79.2692ZM176 74C122.285 74 71.4759 75.8947 26.29 79.2692L26.1411 77.2748C71.3806 73.8963 122.24 72 176 72L176 74ZM0.999998 24L0.999995 54.1412L-1 54.1412L-1 24L0.999998 24ZM26.29 79.2692C21.6844 79.6132 18.1698 79.8764 15.3766 79.8564C12.5753 79.8364 10.3978 79.5334 8.48956 78.6833L9.30337 76.8564C10.8472 77.5441 12.7069 77.8373 15.3909 77.8565C18.0831 77.8757 21.502 77.6212 26.1411 77.2748L26.29 79.2692ZM0.999995 54.1412C0.999995 58.7267 1.0008 62.1045 1.22039 64.7538C1.43921 67.3938 1.86959 69.2112 2.67114 70.701L0.909878 71.6486C-0.0790856 69.8105 -0.54396 67.6796 -0.772774 64.919C-1.00081 62.1678 -1.00001 58.6928 -1 54.1412L0.999995 54.1412ZM8.48956 78.6833C5.22155 77.2276 2.60493 74.7991 0.909878 71.6486L2.67114 70.701C4.15642 73.4616 6.4398 75.5808 9.30337 76.8564L8.48956 78.6833ZM353 54.1412C353 58.6928 353.001 62.1679 352.773 64.9191C352.544 67.6796 352.079 69.8105 351.09 71.6486L349.329 70.701C350.13 69.2112 350.561 67.3938 350.78 64.7539C350.999 62.1045 351 58.7267 351 54.1412L353 54.1412ZM325.859 77.2748C330.498 77.6212 333.917 77.8758 336.609 77.8565C339.293 77.8373 341.153 77.5441 342.697 76.8564L343.51 78.6834C341.602 79.5334 339.425 79.8364 336.623 79.8565C333.83 79.8764 330.316 79.6132 325.71 79.2692L325.859 77.2748ZM351.09 71.6486C349.395 74.7992 346.778 77.2276 343.51 78.6834L342.697 76.8564C345.56 75.5809 347.844 73.4616 349.329 70.701L351.09 71.6486ZM24 1C19.7831 1 16.6806 1.00078 14.2295 1.20104C11.79 1.40035 10.084 1.79226 8.64413 2.52591L7.73615 0.743896C9.50496 -0.157355 11.5035 -0.5829 14.0666 -0.792315C16.618 -1.00078 19.8161 -0.999999 24 -0.999998L24 1ZM-1 24C-1 19.8161 -1.00078 16.618 -0.792317 14.0666C-0.582902 11.5035 -0.157357 9.50496 0.743895 7.73615L2.52591 8.64413C1.79226 10.084 1.40035 11.79 1.20104 14.2295C1.00078 16.6806 0.999998 19.7831 0.999998 24L-1 24ZM8.64413 2.52591C6.00986 3.86814 3.86814 6.00986 2.52591 8.64413L0.743895 7.73615C2.27787 4.72556 4.72556 2.27787 7.73615 0.743896L8.64413 2.52591ZM328 -0.999972C332.184 -0.999971 335.382 -1.00075 337.933 -0.792287C340.497 -0.582871 342.495 -0.157326 344.264 0.743926L343.356 2.52594C341.916 1.79229 340.21 1.40038 337.771 1.20107C335.319 1.00081 332.217 1.00003 328 1.00003L328 -0.999972ZM351 24C351 19.7831 350.999 16.6806 350.799 14.2295C350.6 11.7901 350.208 10.084 349.474 8.64416L351.256 7.73618C352.157 9.50499 352.583 11.5035 352.792 14.0666C353.001 16.6181 353 19.8161 353 24L351 24ZM344.264 0.743926C347.274 2.2779 349.722 4.72559 351.256 7.73618L349.474 8.64416C348.132 6.00989 345.99 3.86817 343.356 2.52594L344.264 0.743926Z" fill="white" mask="url(#path-1-inside-1_339_2947)"/>
</svg>
