<svg width="393" height="795" viewBox="0 0 393 795" fill="none" xmlns="http://www.w3.org/2000/svg">
<path d="M14.0603 26.1676C6.02648 27.0536 0 33.8778 0 41.9604V779C0 787.837 7.16345 795 16 795H377C385.837 795 393 787.837 393 779V42.0705C393 33.9935 386.981 27.1721 378.954 26.2799C358.302 23.9845 336.139 22.0663 312.784 20.5809C305.981 20.1483 299.846 16.277 296.591 10.2878C293.145 3.94745 286.507 0 279.291 0L112.709 1.33019e-05C105.493 1.39328e-05 98.8546 3.94747 95.4088 10.2878C92.1538 16.277 86.019 20.1483 79.2162 20.5809C56.2427 22.042 34.423 23.9219 14.0603 26.1676Z" fill="#6600FF"/>
</svg>
